<svg xmlns="http://www.w3.org/2000/svg" xmlns:xlink="http://www.w3.org/1999/xlink" aria-hidden="true" focusable="false" width="1em" height="1em" style="-ms-transform: rotate(360deg); -webkit-transform: rotate(360deg); transform: rotate(360deg);" preserveAspectRatio="xMidYMid meet" viewBox="0 0 24 24"><path d="M18 19a3 3 0 0 1-3 3H8a3 3 0 0 1-3-3V7H4V4h4.5l1-1h4l1 1H19v3h-1v12zM6 7v12a2 2 0 0 0 2 2h7a2 2 0 0 0 2-2V7H6zm12-1V5h-4l-1-1h-3L9 5H5v1h13zM8 9h1v10H8V9zm6 0h1v10h-1V9z" fill="black"/></svg>